<svg width="163" height="101" viewBox="0 0 163 101" fill="none" xmlns="http://www.w3.org/2000/svg">
<path d="M81.3511 0.82196C53.6857 0.82196 31.2784 23.0639 31.2784 50.5252C31.2784 77.9865 53.6857 100.228 81.3511 100.228C109.016 100.228 131.424 77.9865 131.424 50.5252C131.424 23.0639 109.016 0.82196 81.3511 0.82196ZM81.3511 90.2878C59.2185 90.2878 41.293 72.4945 41.293 50.5252C41.293 28.5559 59.2185 10.7626 81.3511 10.7626C103.484 10.7626 121.409 28.5559 121.409 50.5252C121.409 72.4945 103.484 90.2878 81.3511 90.2878Z" fill="#B2935B"/>
<path d="M24.2546 63.7885C23.6128 64.5225 22.9236 65.0495 22.1841 65.3667C21.4446 65.6878 20.5493 65.849 19.5009 65.849C18.117 65.849 17.025 65.558 16.2261 64.9787C15.4259 64.3993 14.9069 63.4097 14.6679 62.0112L14.0235 58.4617C13.7132 56.7354 13.3382 55.4627 12.8985 54.6448C12.4574 53.8269 11.7232 53.418 10.6959 53.418H8.37185V61.5865C8.37185 62.4857 8.43656 63.1371 8.56728 63.5421C8.70065 63.9445 8.94494 64.2171 9.30147 64.36C9.66064 64.5003 10.2443 64.5946 11.0551 64.6431V65.3509C9.76628 65.2815 7.96514 65.2461 5.65166 65.2461C3.10181 65.2461 1.21748 65.2815 0 65.3509V64.6431C0.788327 64.5946 1.36802 64.5003 1.73775 64.36C2.10749 64.2171 2.35706 63.9445 2.48779 63.5421C2.61719 63.1371 2.68322 62.4857 2.68322 61.5865V43.9754C2.68322 43.0736 2.61719 42.4222 2.48779 42.0198C2.35706 41.6187 2.10749 41.3473 1.73775 41.2071C1.36802 41.0642 0.788327 40.9685 0 40.9187V40.2109C1.21748 40.2817 3.03183 40.3158 5.44038 40.3158L9.41239 40.2791C9.88776 40.2555 10.4344 40.2424 11.0551 40.2424C14.347 40.2424 16.8203 40.7759 18.4762 41.8415C20.1347 42.9084 20.964 44.4355 20.964 46.4238C20.964 48.1055 20.3433 49.5854 19.1047 50.8646C17.8648 52.1413 15.8141 52.9448 12.9513 53.2764C15.0984 53.4651 16.6975 53.9265 17.7473 54.6605C18.7957 55.3946 19.4758 56.4956 19.7861 57.9636L20.6101 61.6232C20.8002 62.5709 21.0194 63.2328 21.2703 63.6103C21.5199 63.9878 21.8725 64.1765 22.3267 64.1765C22.6119 64.1555 22.8549 64.0861 23.0556 63.9668C23.259 63.8488 23.494 63.647 23.7581 63.3639L24.2546 63.7885ZM10.5903 40.9187C9.94587 40.9187 9.47313 41.0026 9.1747 41.1704C8.87892 41.3356 8.67028 41.6305 8.55144 42.0565C8.43127 42.4838 8.37185 43.1234 8.37185 43.9754V52.7102H9.90889C11.8658 52.7102 13.2075 52.1963 13.9337 51.1687C14.6626 50.1385 15.0271 48.6862 15.0271 46.8118C15.0271 44.8719 14.6798 43.4065 13.9865 42.413C13.2959 41.4168 12.1643 40.9187 10.5903 40.9187Z" fill="white"/>
<path d="M48.1896 40.9187C47.4 41.038 46.8216 41.2412 46.4519 41.5269C46.0821 41.81 45.8312 42.2596 45.7018 42.8743C45.5711 43.4904 45.5064 44.4 45.5064 45.6059V55.017C45.5064 58.404 45.0165 60.9141 44.038 62.5459C43.3936 63.588 42.4614 64.3993 41.2439 64.9787C40.029 65.558 38.5395 65.849 36.7754 65.849C34.0076 65.849 31.8605 65.2565 30.3367 64.0716C29.2381 63.1987 28.4986 62.0924 28.1183 60.7528C27.738 59.4146 27.5478 57.5376 27.5478 55.1219V43.9754C27.5478 43.0736 27.4805 42.4221 27.3471 42.0197C27.2164 41.6186 26.9668 41.3473 26.5971 41.2071C26.2274 41.0642 25.649 40.9685 24.8646 40.9187V40.2109C26.0795 40.2817 27.9387 40.3158 30.4423 40.3158C32.9248 40.3158 34.8211 40.2817 36.131 40.2109V40.9187C35.2713 40.9685 34.6441 41.0642 34.2506 41.2071C33.8597 41.3473 33.5917 41.6186 33.4478 42.0197C33.3065 42.4221 33.2365 43.0736 33.2365 43.9754V57.3606C33.2365 59.8458 33.5983 61.6756 34.3246 62.85C35.0535 64.0218 36.3343 64.6064 38.1698 64.6064C40.5572 64.6064 42.2382 63.8082 43.214 62.2104C44.1925 60.61 44.6824 58.3437 44.6824 55.4103V46.0306C44.6824 44.6609 44.5979 43.6437 44.4289 42.9792C44.2625 42.316 43.9403 41.8362 43.4623 41.5426C42.9869 41.2464 42.2369 41.038 41.2122 40.9187V40.2109C42.1167 40.2817 43.4042 40.3158 45.0733 40.3158C46.4109 40.3158 47.4501 40.2817 48.1896 40.2109V40.9187ZM40.14 32.1839C40.474 31.9952 40.8438 31.9008 41.2492 31.9008C41.6295 31.9008 41.9794 31.9952 42.3003 32.1839C42.6238 32.3727 42.8681 32.6335 43.0344 32.9651C43.1784 33.2037 43.251 33.4763 43.251 33.783C43.251 34.1369 43.1427 34.4738 42.9288 34.7949C42.7136 35.1134 42.4165 35.3795 42.0362 35.5919C41.677 35.7806 41.2571 35.9523 40.7791 36.1057C40.3037 36.2603 39.7927 36.3967 39.2473 36.5146C39.0783 36.5644 38.5461 36.7073 37.6522 36.9445C36.7569 37.1792 35.7375 37.5095 34.5939 37.9355L34.3457 37.5108C35.5103 36.5395 36.6909 35.4162 37.8846 34.1396C38.4088 33.5943 38.8261 33.1853 39.1364 32.9127C39.4454 32.6401 39.7808 32.3976 40.14 32.1839Z" fill="white"/>
<path d="M59.6364 39.7496C60.875 39.7496 61.8653 39.8689 62.6048 40.1061C63.3443 40.3407 64.0943 40.6828 64.8549 41.1337C65.119 41.274 65.3514 41.3932 65.5521 41.4902C65.7555 41.5846 65.9298 41.6318 66.075 41.6318C66.2889 41.6318 66.4553 41.5086 66.5715 41.2595C66.6904 41.0079 66.7881 40.612 66.862 40.0694H67.6807C67.5645 41.6528 67.5064 44.3516 67.5064 48.1645H66.6824C66.5874 46.8852 66.2942 45.6663 65.8056 44.5049C65.3157 43.3449 64.6238 42.4051 63.7298 41.6842C62.8346 40.9607 61.7914 40.5989 60.5977 40.5989C59.4317 40.5989 58.4849 40.9266 57.756 41.5794C57.0271 42.2295 56.6626 43.1103 56.6626 44.2218C56.6626 45.0502 56.8422 45.7724 57.2014 46.3872C57.5606 47.0032 58.0597 47.5655 58.7015 48.0754C59.3459 48.5866 60.3362 49.2787 61.6752 50.1516L62.8161 50.9328C64.2237 51.8556 65.3329 52.6617 66.1437 53.3498C66.9531 54.0353 67.6147 54.8336 68.1297 55.7458C68.6434 56.6581 68.9009 57.7172 68.9009 58.9231C68.9009 60.4409 68.506 61.715 67.7177 62.7452C66.932 63.7728 65.8651 64.5475 64.5169 65.0678C63.1673 65.5882 61.6712 65.849 60.0272 65.849C58.6922 65.849 57.583 65.7298 56.6996 65.4925C55.8188 65.2553 55.0094 64.9354 54.2699 64.533C53.7444 64.2014 53.3377 64.035 53.0498 64.035C52.8346 64.035 52.6669 64.1608 52.548 64.4125C52.4318 64.6615 52.3367 65.056 52.2628 65.5974H51.4441C51.5392 64.1084 51.5867 60.9141 51.5867 56.0132H52.4054C52.5744 58.6636 53.1713 60.8105 54.196 62.4568C55.2207 64.1031 56.7947 64.9263 58.918 64.9263C60.2068 64.9263 61.2685 64.5842 62.103 63.8987C62.9376 63.2105 63.3548 62.2261 63.3548 60.9469C63.3548 59.623 62.9244 58.4866 62.066 57.5389C61.2064 56.5926 59.8476 55.5256 57.9884 54.3407C56.5583 53.418 55.4135 52.6145 54.5551 51.929C53.6955 51.2408 52.9917 50.4295 52.4424 49.4962C51.8931 48.5604 51.6184 47.4764 51.6184 46.2456C51.6184 44.8274 51.9828 43.6267 52.7118 42.6437C53.4407 41.6619 54.4125 40.9345 55.6274 40.4626C56.8422 39.9881 58.1785 39.7496 59.6364 39.7496Z" fill="white"/>
<path d="M93.9745 40.2109C93.8081 42.4589 93.7263 44.4708 93.7263 46.2456C93.7263 47.3571 93.7606 48.2576 93.8319 48.9457H93.0079C92.4375 46.0346 91.6571 43.9859 90.668 42.801C89.6777 41.6161 88.3242 41.0236 86.6062 41.0236H85.7823V61.3034C85.7823 62.2969 85.8826 63.0178 86.0833 63.4687C86.2867 63.9196 86.6459 64.2224 87.1608 64.3757C87.6745 64.5304 88.4919 64.6195 89.6117 64.6431V65.3509C86.6076 65.2815 84.3416 65.2461 82.8138 65.2461C81.3098 65.2461 79.1284 65.2815 76.2695 65.3509V64.6431C77.3893 64.6195 78.204 64.5304 78.7151 64.3757C79.2287 64.2224 79.5866 63.9196 79.7873 63.4687C79.9906 63.0178 80.0936 62.2969 80.0936 61.3034V41.0236H79.3066C78.1618 41.0236 77.1899 41.2739 76.391 41.7733C75.5908 42.2701 74.9041 43.0933 74.3311 44.2428C73.7606 45.3897 73.272 46.9573 72.868 48.9457H72.044C72.1179 48.2576 72.1549 47.3571 72.1549 46.2456C72.1549 44.4708 72.0704 42.4589 71.9014 40.2109C74.0736 40.2817 77.759 40.3158 82.9564 40.3158C88.1565 40.3158 91.8301 40.2817 93.9745 40.2109Z" fill="white"/>
<path d="M107.818 40.9187C107.007 40.9685 106.424 41.0642 106.065 41.2071C105.708 41.3473 105.464 41.6187 105.33 42.0198C105.2 42.4222 105.135 43.0736 105.135 43.9754V61.5865C105.135 62.4857 105.2 63.1371 105.33 63.5421C105.464 63.9445 105.708 64.2171 106.065 64.36C106.424 64.5003 107.007 64.5946 107.818 64.6431V65.3509C106.529 65.2815 104.728 65.2461 102.415 65.2461C99.8649 65.2461 97.9805 65.2815 96.7631 65.3509V64.6431C97.5514 64.5946 98.1311 64.5003 98.5008 64.36C98.8705 64.2171 99.1201 63.9445 99.2508 63.5421C99.3803 63.1371 99.4463 62.4857 99.4463 61.5865V43.9754C99.4463 43.0736 99.3803 42.4222 99.2508 42.0198C99.1201 41.6187 98.8705 41.3473 98.5008 41.2071C98.1311 41.0642 97.5514 40.9685 96.7631 40.9187V40.2109C97.9805 40.2817 99.8649 40.3158 102.415 40.3158C104.728 40.3158 106.529 40.2817 107.818 40.2109V40.9187Z" fill="white"/>
<path d="M123.845 39.7128C125.274 39.7128 126.489 39.9147 127.49 40.3158C128.494 40.7182 129.472 41.2857 130.427 42.0197C130.691 42.2334 130.918 42.3396 131.108 42.3396C131.584 42.3396 131.893 41.6304 132.038 40.2109H132.862C132.767 41.8192 132.719 44.6832 132.719 48.8041H131.895C131.68 47.053 131.393 45.716 131.034 44.7933C130.678 43.8679 130.07 43.0618 129.212 42.3763C128.616 41.8074 127.924 41.3748 127.136 41.0812C126.346 40.785 125.525 40.6356 124.669 40.6356C122.261 40.6356 120.472 41.8021 119.303 44.1326C118.133 46.4645 117.549 49.3704 117.549 52.8517C117.549 56.3094 118.157 59.1983 119.372 61.5183C120.589 63.8357 122.404 64.9944 124.812 64.9944C125.622 64.9944 126.426 64.8476 127.226 64.554C128.025 64.2578 128.7 63.8239 129.249 63.2537C130.128 62.5931 130.741 61.7673 131.087 60.7738C131.436 59.7776 131.705 58.3201 131.895 56.4012H132.719C132.719 60.6873 132.767 63.6705 132.862 65.3509H132.038C131.966 64.5933 131.865 64.0546 131.731 63.7361C131.601 63.4149 131.416 63.2537 131.177 63.2537C130.987 63.2537 130.736 63.3507 130.427 63.5421C129.352 64.2971 128.326 64.8712 127.347 65.2618C126.372 65.6524 125.192 65.849 123.809 65.849C121.28 65.849 119.067 65.3404 117.169 64.3233C115.274 63.3035 113.802 61.8276 112.753 59.8982C111.704 57.9688 111.179 55.6672 111.179 52.9933C111.179 50.3901 111.716 48.0832 112.79 46.0725C113.864 44.0592 115.36 42.4968 117.28 41.3853C119.199 40.2712 121.387 39.7128 123.845 39.7128Z" fill="white"/>
<path d="M149.709 39.7128C152.236 39.7128 154.448 40.2214 156.343 41.2385C158.24 42.2557 159.714 43.7289 160.764 45.6583C161.812 47.5878 162.338 49.892 162.338 52.5686C162.338 55.173 161.8 57.4812 160.727 59.4945C159.652 61.5052 158.156 63.0676 156.237 64.1817C154.317 65.2932 152.129 65.849 149.672 65.849C147.143 65.849 144.93 65.3404 143.032 64.3233C141.137 63.3035 139.665 61.8276 138.617 59.8982C137.567 57.9688 137.043 55.6672 137.043 52.9933C137.043 50.3901 137.579 48.0832 138.654 46.0725C139.727 44.0592 141.223 42.4968 143.143 41.3853C145.062 40.2712 147.25 39.7128 149.709 39.7128ZM149.566 40.3525C148.252 40.3525 147.094 40.8807 146.091 41.9358C145.09 42.9884 144.322 44.4616 143.788 46.3557C143.252 48.2471 142.985 50.4124 142.985 52.8517C142.985 55.3133 143.287 57.4786 143.893 59.3477C144.502 61.2181 145.325 62.6639 146.36 63.6836C147.398 64.7008 148.549 65.2094 149.814 65.2094C151.127 65.2094 152.284 64.6837 153.285 63.6312C154.288 62.5761 155.057 61.1015 155.593 59.2062C156.128 57.3121 156.396 55.1468 156.396 52.7101C156.396 50.2459 156.091 48.0793 155.482 46.2089C154.876 44.3397 154.053 42.8953 153.015 41.8782C151.98 40.861 150.83 40.3525 149.566 40.3525Z" fill="white"/>
</svg>
